<?xml version="1.0" encoding="UTF-8" standalone="no"?>
<!-- Created with Inkscape (http://www.inkscape.org/) -->

<svg
   xmlns:dc="http://purl.org/dc/elements/1.1/"
   xmlns:cc="http://creativecommons.org/ns#"
   xmlns:rdf="http://www.w3.org/1999/02/22-rdf-syntax-ns#"
   xmlns:svg="http://www.w3.org/2000/svg"
   xmlns="http://www.w3.org/2000/svg"
   xmlns:sodipodi="http://sodipodi.sourceforge.net/DTD/sodipodi-0.dtd"
   xmlns:inkscape="http://www.inkscape.org/namespaces/inkscape"
   width="512"
   height="512"
   viewBox="0 0 512.00001 512.00001"
   id="svg2"
   version="1.1"
   inkscape:version="0.91 r13725"
   sodipodi:docname="logosvg.svg">
  <defs
     id="defs4" />
  <sodipodi:namedview
     id="base"
     pagecolor="#ffffff"
     bordercolor="#666666"
     borderopacity="1.0"
     inkscape:pageopacity="0.0"
     inkscape:pageshadow="2"
     inkscape:zoom="0.35"
     inkscape:cx="-77.857143"
     inkscape:cy="520"
     inkscape:document-units="px"
     inkscape:current-layer="layer1"
     showgrid="false"
     units="px"
     inkscape:window-width="1440"
     inkscape:window-height="775"
     inkscape:window-x="0"
     inkscape:window-y="1"
     inkscape:window-maximized="1" />
  <metadata
     id="metadata7">
    <rdf:RDF>
      <cc:Work
         rdf:about="">
        <dc:format>image/svg+xml</dc:format>
        <dc:type
           rdf:resource="http://purl.org/dc/dcmitype/StillImage" />
        <dc:title></dc:title>
      </cc:Work>
    </rdf:RDF>
  </metadata>
  <g
     inkscape:label="Layer 1"
     inkscape:groupmode="layer"
     id="layer1"
     transform="translate(0,-540.36216)">
    <path
       style="fill:#000000"
       d="m 181.54374,991.46697 c -34.17297,-4.69213 -59.8744,-32.20492 -61.74175,-66.09312 -0.7209,-13.08282 1.48152,-23.6919 7.46617,-35.96457 4.16809,-8.54746 5.79973,-10.65308 16.27281,-21 12.59366,-12.44195 13.13911,-13.27317 24.35595,-37.11637 11.60159,-24.66106 21.4803,-38.38224 34.13516,-47.41256 13.43332,-9.58582 27.80208,-14.21742 47.01166,-15.15365 29.29776,-1.4279 51.91163,6.30618 69,23.59842 9.42738,9.53986 14.94418,18.15349 25.6557,40.05749 11.16972,22.84094 14.32942,27.64904 22.37939,34.05459 18.43037,14.66549 28.54538,39.63851 25.47415,62.89327 -2.26314,17.13597 -8.07871,29.09937 -20.00924,41.16161 -12.10886,12.24255 -25.26021,18.75898 -42.1275,20.87396 -8.52501,1.06894 -15.37111,0.46363 -32.3725,-2.86229 -28.76602,-5.6274 -59.35839,-5.17277 -89.5,1.33006 -8.74844,1.88741 -19.31454,2.5511 -26,1.63316 z m -61,-147.02163 c -26.646724,-4.94877 -55.032919,-34.08361 -66.774949,-68.53606 -6.81557,-19.99763 -6.89066,-42.43434 -0.18601,-55.57654 3.03523,-5.94955 8.68217,-11.73489 14.39749,-14.75037 4.52537,-2.38764 6.12616,-2.66864 15.06346,-2.6442 11.814695,0.0323 17.599389,1.83295 29.283139,9.11511 25.80899,16.08604 46.93074,51.72392 49.73955,83.92355 1.44439,16.55818 -3.56711,32.69071 -12.70834,40.90947 -7.34631,6.60496 -18.37416,9.49796 -28.81434,7.55904 z m 255.4069,-0.44257 c -23.65129,-5.7417 -32.67917,-35.81363 -21.34293,-71.09349 5.66263,-17.62285 15.47271,-33.85465 28.43603,-47.05038 16.32898,-16.62173 32.47954,-24.30205 48.85447,-23.23251 18.5156,1.20936 29.88854,15.16981 31.35514,38.48888 2.01983,32.1155 -17.80418,71.56157 -46.11777,91.76573 -8.10777,5.78558 -15.65751,9.22334 -24.25705,11.0454 -8.06933,1.70973 -10.16086,1.71916 -16.92789,0.0764 z m -170.8126,-91.67831 c -20.14349,-3.25998 -41.30117,-27.1174 -50.9705,-57.47438 -5.65492,-17.75371 -7.25316,-39.41052 -4.07611,-55.23296 5.21281,-25.96096 22.67529,-41.82795 42.12172,-38.27318 36.0644,6.5925 65.14505,65.63362 55.44396,112.56534 -5.55708,26.8839 -21.99641,41.73653 -42.51907,38.41518 z m 100.74945,0.0434 c -17.498,-3.46185 -29.31487,-20.7484 -32.26421,-47.19837 -2.30654,-20.68521 2.34483,-43.82302 13.01869,-64.76021 13.72856,-26.92913 35.81081,-42.62053 54.8878,-39.00265 23.27213,4.41347 36.9792,36.09845 31.58127,73.00265 -5.85604,40.03616 -29.58338,73.01955 -56.04756,77.91172 -3.23788,0.59855 -6.14191,1.03898 -6.4534,0.97871 -0.31149,-0.0603 -2.43665,-0.47959 -4.72259,-0.93185 z"
       id="path4147"
       inkscape:connector-curvature="0" />
  </g>
</svg>
